<?xml version="1.0" encoding="UTF-8"?>
<svg width="300px" height="300px" viewBox="0 0 300 300" version="1.1" xmlns="http://www.w3.org/2000/svg" xmlns:xlink="http://www.w3.org/1999/xlink">
    <!-- Generator: Sketch 48.2 (47327) - http://www.bohemiancoding.com/sketch -->
    <title>cashback</title>
    <desc>Created with Sketch.</desc>
    <defs>
        <linearGradient x1="36.092144%" y1="50%" x2="85.7794435%" y2="50%" id="linearGradient-1">
            <stop stop-color="#6A358B" offset="0%"></stop>
            <stop stop-color="#483487" offset="100%"></stop>
        </linearGradient>
    </defs>
    <g id="Web" stroke="none" stroke-width="1" fill="none" fill-rule="evenodd">
        <g id="cashback">
            <g id="Group-106" transform="translate(11.000000, 46.000000)" fill="#01D4BB">
                <path d="M43,80.5 C43,92.3752013 33.3735219,102 21.5010819,102 C9.62647814,102 0,92.3752013 0,80.5 C0,68.6247987 9.62647814,59 21.5010819,59 C33.3735219,59 43,68.6247987 43,80.5" id="Fill-96"></path>
                <path d="M275,174.998881 C275,179.968412 270.97065,184 266.001119,184 C261.02935,184 257,179.968412 257,174.998881 C257,170.02935 261.02935,166 266.001119,166 C270.97065,166 275,170.02935 275,174.998881" id="Fill-98"></path>
                <path d="M245,6 C245,9.31289641 242.312896,12 239,12 C235.687104,12 233,9.31289641 233,6 C233,2.68710359 235.687104,0 239,0 C242.312896,0 245,2.68710359 245,6" id="Fill-100"></path>
                <path d="M283,74.5 C283,76.9851989 280.985199,79 278.5,79 C276.014801,79 274,76.9851989 274,74.5 C274,72.0148011 276.014801,70 278.5,70 C280.985199,70 283,72.0148011 283,74.5" id="Fill-102"></path>
                <path d="M22,203 C22,206.311964 19.3136999,209 15.9988816,209 C12.6863001,209 10,206.311964 10,203 C10,199.685799 12.6863001,197 15.9988816,197 C19.3136999,197 22,199.685799 22,203" id="Fill-104"></path>
            </g>
            <g id="dollar-symbol" transform="translate(78.000000, 6.000000)" fill="url(#linearGradient-1)" fill-rule="nonzero">
                <path d="M115.261087,131.734859 C103.901074,125.445925 91.8235874,120.654357 79.8656795,115.683105 C72.930093,112.808163 66.2934541,109.454066 60.4340793,104.782286 C48.8946982,95.5585169 51.1069112,80.5848653 64.619347,74.6552993 C68.4458775,72.9782503 72.4517767,72.4391988 76.5174653,72.1996204 C92.1823246,71.3610959 107.06992,74.236037 121.240041,81.0640221 C128.295206,84.4780147 130.626998,83.3999118 133.01858,76.0328752 C135.529741,68.2465764 137.622374,60.3404884 139.954166,52.4942949 C141.508695,47.2235696 139.595429,43.7496824 134.632897,41.533582 C125.544888,37.5206434 116.217719,34.6457023 106.412235,33.0884425 C93.6172736,31.1119205 93.6172736,31.0520259 93.557484,18.1746855 C93.4976945,0.026619825 93.4976945,0.026619825 75.3216746,0.026619825 C72.6909348,0.026619825 70.0601951,-0.0332747813 67.4294554,0.026619825 C58.9393408,0.26619825 57.5043919,1.76356341 57.2652337,10.3284921 C57.1456546,14.1617469 57.2652337,17.9950017 57.2054442,21.8881511 C57.1456546,33.2681263 57.0858651,33.0884425 46.2041689,37.0414865 C19.8967717,46.6246235 3.63401699,64.5930054 1.90012035,93.3424164 C0.345592328,118.797624 13.61887,135.987376 34.4854192,148.505349 C47.3401702,156.231753 61.5700805,160.783743 75.2020955,166.833098 C80.5233645,169.168988 85.6054753,171.864245 90.0299012,175.577711 C103.12381,186.418635 100.732229,204.446911 85.1869485,211.274896 C76.8762026,214.928467 68.0871403,215.826886 59.0589199,214.688889 C45.1279572,212.951945 31.79489,209.298374 19.2390867,202.769862 C11.8849734,198.936607 9.73254999,199.954816 7.22138934,207.920798 C5.06896593,214.808678 3.15570067,221.756452 1.24243542,228.704227 C-1.32851477,238.047785 -0.371882143,240.263886 8.53675921,244.636192 C19.8967717,250.146496 32.0340481,252.961542 44.4104828,254.938064 C54.0963881,256.495324 54.3953358,256.914586 54.5149149,266.97688 C54.5747044,271.52887 54.5747044,276.140755 54.634494,280.692745 C54.6942835,286.442627 57.4446023,289.796725 63.3637667,289.916514 C70.0601951,290.036304 76.816413,290.036304 83.5128414,289.85662 C89.013479,289.73683 91.8235874,286.7421 91.8235874,281.171902 C91.8235874,274.942863 92.1225351,268.653929 91.8833769,262.42489 C91.5844292,256.076062 94.334748,252.841753 100.433281,251.164704 C114.483823,247.331449 126.441731,239.784729 135.64932,228.524543 C161.239242,197.379348 151.493548,151.799552 115.261087,131.734859 Z" id="Shape"></path>
            </g>
        </g>
    </g>
</svg>