<?xml version="1.0" encoding="UTF-8"?>
<svg width="300px" height="300px" viewBox="0 0 300 300" version="1.1" xmlns="http://www.w3.org/2000/svg" xmlns:xlink="http://www.w3.org/1999/xlink">
    <!-- Generator: Sketch 48.2 (47327) - http://www.bohemiancoding.com/sketch -->
    <title>coupons</title>
    <desc>Created with Sketch.</desc>
    <defs>
        <linearGradient x1="36.092144%" y1="50%" x2="85.7794435%" y2="50%" id="linearGradient-1">
            <stop stop-color="#6A358B" offset="0%"></stop>
            <stop stop-color="#483487" offset="100%"></stop>
        </linearGradient>
    </defs>
    <g id="Web" stroke="none" stroke-width="1" fill="none" fill-rule="evenodd">
        <g id="coupons">
            <g id="Group-106" transform="translate(150.500000, 121.500000) scale(-1, 1) translate(-150.500000, -121.500000) translate(9.000000, 17.000000)" fill="#01D4BB">
                <path d="M43,80.5 C43,92.3752013 33.3735219,102 21.5010819,102 C9.62647814,102 0,92.3752013 0,80.5 C0,68.6247987 9.62647814,59 21.5010819,59 C33.3735219,59 43,68.6247987 43,80.5" id="Fill-96"></path>
                <path d="M275,174.998881 C275,179.968412 270.97065,184 266.001119,184 C261.02935,184 257,179.968412 257,174.998881 C257,170.02935 261.02935,166 266.001119,166 C270.97065,166 275,170.02935 275,174.998881" id="Fill-98"></path>
                <path d="M245,6 C245,9.31289641 242.312896,12 239,12 C235.687104,12 233,9.31289641 233,6 C233,2.68710359 235.687104,0 239,0 C242.312896,0 245,2.68710359 245,6" id="Fill-100"></path>
                <path d="M283,74.5 C283,76.9851989 280.985199,79 278.5,79 C276.014801,79 274,76.9851989 274,74.5 C274,72.0148011 276.014801,70 278.5,70 C280.985199,70 283,72.0148011 283,74.5" id="Fill-102"></path>
                <path d="M22,203 C22,206.311964 19.3136999,209 15.9988816,209 C12.6863001,209 10,206.311964 10,203 C10,199.685799 12.6863001,197 15.9988816,197 C19.3136999,197 22,199.685799 22,203" id="Fill-104"></path>
            </g>
            <g id="Group-2" transform="translate(31.000000, 31.000000)">
                <circle id="Oval-3" fill="url(#linearGradient-1)" cx="119" cy="119" r="119"></circle>
                <g id="Group-3" transform="translate(16.000000, 0.000000)">
                    <path d="M39.6243653,71.24478 L93.8091547,20.3268037 C96.5034156,17.7949804 100.702061,17.7949803 103.396322,20.3268034 L157.58112,71.2447798 C159.190166,72.7568161 160.102738,74.8666414 160.102738,77.0746458 L160.102738,201.975334 C160.102738,206.393612 156.521016,209.975334 152.102738,209.975334 L45.1027384,209.975335 C40.6844604,209.975335 37.1027384,206.393613 37.1027384,201.975335 L37.102747,77.0746452 C37.1027472,74.8666411 38.0153194,72.7568162 39.6243653,71.24478 Z M98.602734,54.1363812 C103.45495,54.1363812 107.388448,50.1680797 107.388448,45.2729317 C107.388448,40.3777836 103.45495,36.4094821 98.602734,36.4094821 C93.7505183,36.4094821 89.8170203,40.3777836 89.8170203,45.2729317 C89.8170203,50.1680797 93.7505183,54.1363812 98.602734,54.1363812 Z" id="Combined-Shape" fill="#02D4BA" transform="translate(98.602738, 114.201635) rotate(-27.000000) translate(-98.602738, -114.201635) "></path>
                    <g id="Group" transform="translate(77.000000, 98.000000)" stroke="url(#linearGradient-1)" stroke-width="5">
                        <path d="M25.7727273,66.5914634 L37.2272727,0.408536585" id="Line-2" stroke-linecap="square"></path>
                        <ellipse id="Oval-2" cx="9.81818182" cy="22.8780488" rx="9.81818182" ry="9.80487805"></ellipse>
                        <ellipse id="Oval-2" cx="53.1818182" cy="41.6707317" rx="9.81818182" ry="9.80487805"></ellipse>
                    </g>
                </g>
            </g>
        </g>
    </g>
</svg>