<?xml version="1.0" encoding="UTF-8"?>
<svg width="138px" height="138px" viewBox="0 0 138 138" version="1.1" xmlns="http://www.w3.org/2000/svg" xmlns:xlink="http://www.w3.org/1999/xlink">
    <!-- Generator: Sketch 48.2 (47327) - http://www.bohemiancoding.com/sketch -->
    <title>search_icon</title>
    <desc>Created with Sketch.</desc>
    <defs></defs>
    <g id="Page-2" stroke="none" stroke-width="1" fill="none" fill-rule="evenodd">
        <g id="search_icon">
            <g transform="translate(0.000000, 1.000000)">
                <path d="M84.4132,47.7388 C84.4132,70.8698 65.6622,89.6208 42.5312,89.6208 C19.4002,89.6208 0.6492,70.8698 0.6492,47.7388 C0.6492,24.6078 19.4002,5.8568 42.5312,5.8568 C65.6622,5.8568 84.4132,24.6078 84.4132,47.7388" id="Fill-71" fill="#01D4BB"></path>
                <polygon id="Fill-73" fill="#FFFFFF" points="36.468 101.303 88.283 101.303 88.283 15.968 36.468 15.968"></polygon>
                <path d="M135.6006,25.9038 C135.6006,31.3918 131.1516,35.8408 125.6646,35.8408 C120.1766,35.8408 115.7276,31.3918 115.7276,25.9038 C115.7276,20.4158 120.1766,15.9678 125.6646,15.9678 C131.1516,15.9678 135.6006,20.4158 135.6006,25.9038" id="Fill-75" fill="#01D4BB"></path>
                <path d="M33.6967,132.0652 C33.6967,134.2852 31.8967,136.0862 29.6767,136.0862 C27.4557,136.0862 25.6557,134.2852 25.6557,132.0652 C25.6557,129.8452 27.4557,128.0442 29.6767,128.0442 C31.8967,128.0442 33.6967,129.8452 33.6967,132.0652" id="Fill-76" fill="#01D4BB"></path>
                <path d="M137.7414,3.4788 C137.7414,4.9608 136.5404,6.1618 135.0584,6.1618 C133.5774,6.1618 132.3764,4.9608 132.3764,3.4788 C132.3764,1.9978 133.5774,0.7968 135.0584,0.7968 C136.5404,0.7968 137.7414,1.9978 137.7414,3.4788" id="Fill-77" fill="#01D4BB"></path>
                <path d="M8.5124,86.3997 C8.5124,87.8807 7.3114,89.0827 5.8294,89.0827 C4.3484,89.0827 3.1474,87.8807 3.1474,86.3997 C3.1474,84.9177 4.3484,83.7167 5.8294,83.7167 C7.3114,83.7167 8.5124,84.9177 8.5124,86.3997" id="Fill-78" fill="#01D4BB"></path>
                <path d="M102.3811,56.5327 C102.3811,68.9127 92.3451,78.9487 79.9651,78.9487 C67.5851,78.9487 57.5491,68.9127 57.5491,56.5327 C57.5491,44.1527 67.5851,34.1167 79.9651,34.1167 C92.3451,34.1167 102.3811,44.1527 102.3811,56.5327" id="Fill-79" fill="#01D4BB"></path>
                <path d="M80.8961,78.1233 C80.3591,78.1233 79.8171,78.1023 79.2821,78.0623 C69.5211,77.3223 59.5341,69.1643 59.7171,56.7903 C59.8961,44.6673 68.8021,35.8013 80.8931,35.7093 L81.0581,35.7093 C86.7941,35.7093 92.1421,37.9633 96.1171,42.0563 C100.0431,46.0983 102.1191,51.3953 101.9641,56.9683 C102.2671,61.8803 100.1701,67.2513 96.3541,71.3193 C92.2371,75.7063 86.7471,78.1233 80.8961,78.1233 Z M96.4631,74.2263 L97.0991,73.6193 C101.5371,69.3913 104.0021,63.5913 104.0391,57.2883 C104.0771,50.8823 101.5901,44.6083 97.3861,40.5043 C92.8761,36.1023 86.9611,33.6783 80.7311,33.6783 C75.3561,33.6783 70.3341,35.4833 66.2071,38.8983 C56.8101,46.6753 54.8251,59.2233 61.3811,69.4113 C65.6871,76.1033 73.1231,80.2613 80.7881,80.2613 C85.2361,80.2603 89.6051,78.9193 93.7741,76.2723 L94.3671,75.8953 L107.3711,88.6203 L108.6041,87.2053 L96.4631,74.2263 Z" id="Fill-80" fill="#804090"></path>
                <polygon id="Fill-81" fill="#804090" points="44.819 31.871 65.136 31.871 65.136 30.171 44.819 30.171"></polygon>
                <path d="M54.0591,78.2749 C53.4681,78.2139 53.0231,78.1779 52.6771,78.1779 C52.0081,78.1779 52.0081,78.1779 52.0081,80.4479 L52.0081,91.1119 L54.0591,91.1119 L54.0591,78.2749 Z" id="Fill-82" fill="#804090"></path>
                <polygon id="Fill-83" fill="#804090" points="44.822 39.195 57.812 39.195 57.812 37.512 44.822 37.512"></polygon>
                <polygon id="Fill-84" fill="#804090" points="44.801 46.771 52.126 46.771 52.126 44.781 44.801 44.781"></polygon>
                <polygon id="Fill-85" fill="#804090" points="44.765 54.166 52.137 54.166 52.137 52.309 44.765 52.309"></polygon>
                <polygon id="Fill-86" fill="#804090" points="59.632 91.152 61.461 91.152 61.461 83.732 59.632 83.732"></polygon>
                <polygon id="Fill-87" fill="#804090" points="44.815 61.497 52.136 61.497 52.136 59.778 44.815 59.778"></polygon>
                <polygon id="Fill-88" fill="#804090" points="44.798 91.133 46.659 91.133 46.659 85.7 44.798 85.7"></polygon>
                <polygon id="Fill-89" fill="#804090" points="74.393 91.147 76.264 91.147 76.264 85.697 74.393 85.697"></polygon>
                <polygon id="Fill-90" fill="#804090" points="67.097 91.143 68.781 91.143 68.781 89.378 67.097 89.378"></polygon>
                <polygon id="Fill-91" fill="#804090" points="79.852 65.364 81.986 65.364 81.986 46.572 79.852 46.572"></polygon>
                <polygon id="Fill-92" fill="#804090" points="87.187 65.433 89.379 65.433 89.379 53.922 87.187 53.922"></polygon>
                <polygon id="Fill-93" fill="#804090" points="72.4448 61.3416 72.2268 65.4076 74.5468 65.4076 74.5468 61.3416"></polygon>
                <path d="M85.2851,102.3459 L39.4371,102.3459 C37.1501,102.3459 35.2891,100.4839 35.2891,98.1969 L35.2891,19.2209 C35.2891,16.9329 37.1501,15.0709 39.4371,15.0709 L85.2851,15.0709 C87.5731,15.0709 89.4341,16.9329 89.4341,19.2209 L89.4341,30.1709 L87.3481,30.1709 L87.3481,19.2209 C87.3481,18.0829 86.4221,17.1579 85.2851,17.1579 L39.4371,17.1579 C38.3001,17.1579 37.3741,18.0829 37.3741,19.2209 L37.3741,98.1969 C37.3741,99.3339 38.3001,100.2599 39.4371,100.2599 L85.2851,100.2599 C86.4221,100.2599 87.3481,99.3339 87.3481,98.1969 L87.3481,84.6449 L89.4341,84.6449 L89.4341,98.1969 C89.4341,100.4839 87.5731,102.3459 85.2851,102.3459" id="Fill-94" fill="#804090"></path>
            </g>
        </g>
    </g>
</svg>