<?xml version="1.0" encoding="UTF-8"?>
<svg width="300px" height="300px" viewBox="0 0 300 300" version="1.1" xmlns="http://www.w3.org/2000/svg" xmlns:xlink="http://www.w3.org/1999/xlink">
    <!-- Generator: Sketch 48.2 (47327) - http://www.bohemiancoding.com/sketch -->
    <title>security</title>
    <desc>Created with Sketch.</desc>
    <defs>
        <linearGradient x1="36.092144%" y1="50%" x2="85.7794435%" y2="50%" id="linearGradient-1">
            <stop stop-color="#6A358B" offset="0%"></stop>
            <stop stop-color="#483487" offset="100%"></stop>
        </linearGradient>
    </defs>
    <g id="Web" stroke="none" stroke-width="1" fill="none" fill-rule="evenodd">
        <g id="security">
            <g id="Group-106" transform="translate(9.000000, 3.000000)" fill="#01D4BB">
                <path d="M43,80.5 C43,92.3752013 33.3735219,102 21.5010819,102 C9.62647814,102 0,92.3752013 0,80.5 C0,68.6247987 9.62647814,59 21.5010819,59 C33.3735219,59 43,68.6247987 43,80.5" id="Fill-96"></path>
                <path d="M275,174.998881 C275,179.968412 270.97065,184 266.001119,184 C261.02935,184 257,179.968412 257,174.998881 C257,170.02935 261.02935,166 266.001119,166 C270.97065,166 275,170.02935 275,174.998881" id="Fill-98"></path>
                <path d="M245,6 C245,9.31289641 242.312896,12 239,12 C235.687104,12 233,9.31289641 233,6 C233,2.68710359 235.687104,0 239,0 C242.312896,0 245,2.68710359 245,6" id="Fill-100"></path>
                <path d="M283,74.5 C283,76.9851989 280.985199,79 278.5,79 C276.014801,79 274,76.9851989 274,74.5 C274,72.0148011 276.014801,70 278.5,70 C280.985199,70 283,72.0148011 283,74.5" id="Fill-102"></path>
                <path d="M22,203 C22,206.311964 19.3136999,209 15.9988816,209 C12.6863001,209 10,206.311964 10,203 C10,199.685799 12.6863001,197 15.9988816,197 C19.3136999,197 22,199.685799 22,203" id="Fill-104"></path>
            </g>
            <g id="ic_security_black_24px" transform="translate(35.000000, 9.000000)" fill="url(#linearGradient-1)" fill-rule="nonzero">
                <path d="M116,0 L0,51.4545455 L0,128.636364 C0,200.029545 49.4933333,266.791818 116,283 C182.506667,266.791818 232,200.029545 232,128.636364 L232,51.4545455 L116,0 Z M116,141.371364 L206.222222,141.371364 C199.391111,194.369545 163.946667,241.579091 116,256.372273 L116,141.5 L25.7777778,141.5 L25.7777778,68.1772727 L116,28.1713636 L116,141.371364 Z" id="Shape"></path>
            </g>
        </g>
    </g>
</svg>