<?xml version="1.0" encoding="UTF-8"?>
<svg width="300px" height="300px" viewBox="0 0 300 300" version="1.1" xmlns="http://www.w3.org/2000/svg" xmlns:xlink="http://www.w3.org/1999/xlink">
    <!-- Generator: Sketch 48.2 (47327) - http://www.bohemiancoding.com/sketch -->
    <title>security</title>
    <desc>Created with Sketch.</desc>
    <defs>
        <linearGradient x1="36.092144%" y1="50%" x2="85.7794435%" y2="50%" id="linearGradient-1">
            <stop stop-color="#6A358B" offset="0%"></stop>
            <stop stop-color="#483487" offset="100%"></stop>
        </linearGradient>
    </defs>
    <g id="Web" stroke="none" stroke-width="1" fill="none" fill-rule="evenodd">
        <g id="security">
            <g id="house" transform="translate(26.000000, 3.000000)" fill-rule="nonzero">
                <path d="M77.15,175.142 C84.116,175.142 91.784,175.822 98.784,177.108 L98.784,156.139 L149.784,156.139 L149.784,193.563 C155.784,195.766 160.165,198.142 164.278,201.13 C172.075,206.794 176.36,214.229 176.617,222.384 C186.542,220.039 195.645,216.063 203.522,210.647 C206.368,208.691 209.784,206.979 211.784,205.51 L211.784,147.267 L124.047,49.23 L34.784,147.858 L34.784,183.105 C40.784,181.584 46.252,179.949 52.59,178.221 C60.086,176.178 68.405,175.142 77.15,175.142 Z" id="Shape" fill="#483487"></path>
                <polygon id="Shape" fill="#02D4BA" points="124.446 25.313 223.63 136.139 246.251 136.139 124.247 0 73.784 55.572 73.784 33.139 36.784 33.139 36.784 96.454 1.201 136.139 24.144 136.139"></polygon>
                <path d="M235.083,214.931 C229.589,214.931 222.193,217.371 212.794,223.832 C195.612,235.643 174.579,240.844 155.361,240.844 C139.738,240.844 125.316,237.409 115.131,231.298 C110.085,228.27 110.1,227.259 113.027,227.259 C118.905,227.259 136.531,231.338 148.476,231.338 C154.354,231.338 158.855,230.351 159.908,227.404 C164.775,213.776 145.907,209.388 126.178,201.404 C111.734,195.556 94.105,191.142 77.317,191.141 C70.318,191.141 63.403,191.908 56.985,193.658 C27.844,201.603 6.786,207.588 0.786,209.531 L0.786,286.011 C12.786,281.598 26.686,277.369 34.596,277.369 C49.112,277.369 107.849,296.095 141.106,296.095 C145.764,296.095 149.935,295.728 153.404,294.891 C181.631,288.077 230.636,248.166 243.937,234.54 C250.323,227.998 247.797,214.931 235.083,214.931 Z" id="Shape" fill="url(#linearGradient-1)"></path>
            </g>
            <g id="Group-106" transform="translate(9.000000, 3.000000)" fill="#01D4BB">
                <path d="M43,80.5 C43,92.3752013 33.3735219,102 21.5010819,102 C9.62647814,102 0,92.3752013 0,80.5 C0,68.6247987 9.62647814,59 21.5010819,59 C33.3735219,59 43,68.6247987 43,80.5" id="Fill-96"></path>
                <path d="M275,174.998881 C275,179.968412 270.97065,184 266.001119,184 C261.02935,184 257,179.968412 257,174.998881 C257,170.02935 261.02935,166 266.001119,166 C270.97065,166 275,170.02935 275,174.998881" id="Fill-98"></path>
                <path d="M245,6 C245,9.31289641 242.312896,12 239,12 C235.687104,12 233,9.31289641 233,6 C233,2.68710359 235.687104,0 239,0 C242.312896,0 245,2.68710359 245,6" id="Fill-100"></path>
                <path d="M283,74.5 C283,76.9851989 280.985199,79 278.5,79 C276.014801,79 274,76.9851989 274,74.5 C274,72.0148011 276.014801,70 278.5,70 C280.985199,70 283,72.0148011 283,74.5" id="Fill-102"></path>
                <path d="M22,203 C22,206.311964 19.3136999,209 15.9988816,209 C12.6863001,209 10,206.311964 10,203 C10,199.685799 12.6863001,197 15.9988816,197 C19.3136999,197 22,199.685799 22,203" id="Fill-104"></path>
            </g>
        </g>
    </g>
</svg>