<?xml version="1.0" encoding="UTF-8"?>
<svg width="300px" height="300px" viewBox="0 0 300 300" version="1.1" xmlns="http://www.w3.org/2000/svg" xmlns:xlink="http://www.w3.org/1999/xlink">
    <!-- Generator: Sketch 48.2 (47327) - http://www.bohemiancoding.com/sketch -->
    <title>shopping_cart</title>
    <desc>Created with Sketch.</desc>
    <defs>
        <linearGradient x1="36.092144%" y1="50%" x2="85.7794435%" y2="50%" id="linearGradient-1">
            <stop stop-color="#6A358B" offset="0%"></stop>
            <stop stop-color="#483487" offset="100%"></stop>
        </linearGradient>
    </defs>
    <g id="Web" stroke="none" stroke-width="1" fill="none" fill-rule="evenodd">
        <g id="shopping_cart">
            <g id="Group-106" transform="translate(150.500000, 150.500000) scale(1, -1) translate(-150.500000, -150.500000) translate(9.000000, 46.000000)" fill="#01D4BB">
                <path d="M43,80.5 C43,92.3752013 33.3735219,102 21.5010819,102 C9.62647814,102 0,92.3752013 0,80.5 C0,68.6247987 9.62647814,59 21.5010819,59 C33.3735219,59 43,68.6247987 43,80.5" id="Fill-96"></path>
                <path d="M275,174.998881 C275,179.968412 270.97065,184 266.001119,184 C261.02935,184 257,179.968412 257,174.998881 C257,170.02935 261.02935,166 266.001119,166 C270.97065,166 275,170.02935 275,174.998881" id="Fill-98"></path>
                <path d="M245,6 C245,9.31289641 242.312896,12 239,12 C235.687104,12 233,9.31289641 233,6 C233,2.68710359 235.687104,0 239,0 C242.312896,0 245,2.68710359 245,6" id="Fill-100"></path>
                <path d="M283,74.5 C283,76.9851989 280.985199,79 278.5,79 C276.014801,79 274,76.9851989 274,74.5 C274,72.0148011 276.014801,70 278.5,70 C280.985199,70 283,72.0148011 283,74.5" id="Fill-102"></path>
                <path d="M22,203 C22,206.311964 19.3136999,209 15.9988816,209 C12.6863001,209 10,206.311964 10,203 C10,199.685799 12.6863001,197 15.9988816,197 C19.3136999,197 22,199.685799 22,203" id="Fill-104"></path>
            </g>
            <g id="ic_add_shopping_cart_black_24px" transform="translate(43.000000, 39.000000)">
                <path d="M63.9880952,180.52381 C52.2569444,180.52381 42.765377,190.080952 42.765377,201.761905 C42.765377,213.442857 52.2569444,223 63.9880952,223 C75.719246,223 85.3174603,213.442857 85.3174603,201.761905 C85.3174603,190.080952 75.719246,180.52381 63.9880952,180.52381 Z M170.634921,180.52381 C158.90377,180.52381 149.412202,190.080952 149.412202,201.761905 C149.412202,213.442857 158.90377,223 170.634921,223 C182.366071,223 191.964286,213.442857 191.964286,201.761905 C191.964286,190.080952 182.366071,180.52381 170.634921,180.52381 Z M65.8010913,146.011905 L66.1210317,144.737619 L75.719246,127.428571 L155.171131,127.428571 C163.169643,127.428571 170.208333,123.074762 173.834325,116.490952 L215,42.0514286 L196.443452,31.8571429 L196.336806,31.8571429 L184.605655,53.0952381 L155.171131,106.190476 L80.3050595,106.190476 L78.9186508,103.323333 L55.0297619,53.0952381 L44.8983135,31.8571429 L34.8735119,10.6190476 L0,10.6190476 L0,31.8571429 L21.3293651,31.8571429 L59.7222222,112.455714 L45.3249008,138.472381 C43.6185516,141.445714 42.6587302,144.95 42.6587302,148.666667 C42.6587302,160.347619 52.2569444,169.904762 63.9880952,169.904762 L191.964286,169.904762 L191.964286,148.666667 L68.4672619,148.666667 C67.0808532,148.666667 65.8010913,147.498571 65.8010913,146.011905 Z" id="Shape" fill="url(#linearGradient-1)" fill-rule="nonzero"></path>
                <polygon id="Path" fill="#02D4BA" points="106.646825 84.952381 127.97619 84.952381 127.97619 53.0952381 159.970238 53.0952381 159.970238 31.8571429 127.97619 31.8571429 127.97619 0 106.646825 0 106.646825 31.8571429 74.6527778 31.8571429 74.6527778 53.0952381 106.646825 53.0952381"></polygon>
            </g>
        </g>
    </g>
</svg>