<?xml version="1.0" encoding="UTF-8"?>
<svg width="1050px" height="268px" viewBox="0 0 1050 268" version="1.1" xmlns="http://www.w3.org/2000/svg" xmlns:xlink="http://www.w3.org/1999/xlink">
    <!-- Generator: Sketch 48.2 (47327) - http://www.bohemiancoding.com/sketch -->
    <title>teza_logo_black</title>
    <desc>Created with Sketch.</desc>
    <defs></defs>
    <g id="Logo" stroke="none" stroke-width="1" fill="none" fill-rule="evenodd">
        <g id="teza_logo_black" fill="#000000">
            <polygon id="Fill-157" points="365 72.7310657 422.778083 72.7310657 422.778083 227 447.221917 227 447.221917 72.7310657 505 72.7310657 505 50 365 50"></polygon>
            <polygon id="Fill-158" points="835.612131 66.255102 835.612131 50 696.690671 50 696.690671 72.2434868 801.782047 72.2434868 693.511705 210.09162 693 210.744898 693 227 829.945 227 840 204.750109 726.587025 204.750109"></polygon>
            <polygon id="Fill-159" points="956.61124 49 935.38876 49 855 227 880.097944 227 945.751 79.8511158 1010.91882 227 1037 227"></polygon>
            <polygon id="Fill-160" points="560.117791 149.007273 653.743313 149.007273 653.743313 126.519595 560.002945 126.455546 560.002945 72.4236295 664.774969 72.4876787 664.774969 50 536 50 536 72.4044147 536.057423 72.4044147 536.057423 126.436331 536 126.436331 536 227 666 227 666 204.512321 560.117791 204.512321"></polygon>
            <g id="teza_balck" transform="translate(13.000000, 14.000000)">
                <path d="M0,241 L0,0 L245,0 L245,241 L0,241 Z M19.4083442,221.543237 L225.591656,221.543237 L225.591656,19.4567632 L19.4083442,19.4567632 L19.4083442,221.543237 Z" id="Combined-Shape"></path>
                <polygon id="Fill-155" points="132.121441 188.78292 132.299776 52.2013379 58.3926356 52.2013379 58.3926356 75.1041011 107.428406 75.1041011 107.428406 188.78292"></polygon>
                <path d="M140.538605,52.2013379 L140.570375,52.592401 L140.570375,54.3428739 L140.710161,54.3490813 L140.760992,54.858084 C141.59971,63.5732047 146.155471,73.3932337 156.397993,74.8271318 L186.579119,74.8457538 L186.579119,52.2013379 L140.538605,52.2013379 Z" id="Fill-156"></path>
            </g>
        </g>
    </g>
</svg>