<?xml version="1.0" encoding="UTF-8"?>
<svg width="300px" height="300px" viewBox="0 0 300 300" version="1.1" xmlns="http://www.w3.org/2000/svg" xmlns:xlink="http://www.w3.org/1999/xlink">
    <!-- Generator: Sketch 48.2 (47327) - http://www.bohemiancoding.com/sketch -->
    <title>timeline</title>
    <desc>Created with Sketch.</desc>
    <defs>
        <linearGradient x1="36.092144%" y1="50%" x2="85.7794435%" y2="50%" id="linearGradient-1">
            <stop stop-color="#6A358B" offset="0%"></stop>
            <stop stop-color="#483487" offset="100%"></stop>
        </linearGradient>
    </defs>
    <g id="Web" stroke="none" stroke-width="1" fill="none" fill-rule="evenodd">
        <g id="timeline">
            <g id="Group-106" transform="translate(11.000000, 46.000000)" fill="#01D4BB">
                <path d="M43,80.5 C43,92.3752013 33.3735219,102 21.5010819,102 C9.62647814,102 0,92.3752013 0,80.5 C0,68.6247987 9.62647814,59 21.5010819,59 C33.3735219,59 43,68.6247987 43,80.5" id="Fill-96"></path>
                <path d="M275,174.998881 C275,179.968412 270.97065,184 266.001119,184 C261.02935,184 257,179.968412 257,174.998881 C257,170.02935 261.02935,166 266.001119,166 C270.97065,166 275,170.02935 275,174.998881" id="Fill-98"></path>
                <path d="M245,6 C245,9.31289641 242.312896,12 239,12 C235.687104,12 233,9.31289641 233,6 C233,2.68710359 235.687104,0 239,0 C242.312896,0 245,2.68710359 245,6" id="Fill-100"></path>
                <path d="M283,74.5 C283,76.9851989 280.985199,79 278.5,79 C276.014801,79 274,76.9851989 274,74.5 C274,72.0148011 276.014801,70 278.5,70 C280.985199,70 283,72.0148011 283,74.5" id="Fill-102"></path>
                <path d="M22,203 C22,206.311964 19.3136999,209 15.9988816,209 C12.6863001,209 10,206.311964 10,203 C10,199.685799 12.6863001,197 15.9988816,197 C19.3136999,197 22,199.685799 22,203" id="Fill-104"></path>
            </g>
            <g transform="translate(0.000000, 70.000000)" fill="url(#linearGradient-1)" fill-rule="nonzero" id="Shape">
                <path d="M267.274032,0 C252.573975,0 240.546916,12.0747694 240.546916,26.8331412 C240.546916,29.248095 240.813929,31.5287247 241.482322,33.6756066 L194.041332,81.4391167 C191.902933,80.768072 189.497521,80.5 187.09211,80.5 C184.686698,80.5 182.281286,80.768072 180.142887,81.4391167 L146.065742,47.2267897 C146.734136,45.0799078 147.001148,42.6649539 147.001148,40.25 C147.001148,25.4916282 134.97409,13.4168588 120.274032,13.4168588 C105.573975,13.4168588 93.5469162,25.4916282 93.5469162,40.25 C93.5469162,42.6649539 93.813929,45.0799078 94.4823222,47.2267897 L33.5431193,108.272834 C31.4047203,107.60179 29.1331021,107.333718 26.7276903,107.333718 C12.0270587,107.333141 0,119.408487 0,134.166859 C0,148.925231 12.0270587,161 26.7271161,161 C41.4271735,161 53.4542322,148.925231 53.4542322,134.166859 C53.4542322,131.751905 53.1866453,129.470699 52.5188262,127.324393 L113.323661,66.1440245 C115.46206,66.8150692 117.867472,67.0831412 120.272884,67.0831412 C122.678296,67.0831412 125.083707,66.8150692 127.222106,66.1440245 L161.299251,100.356928 C160.630858,102.50381 160.363845,104.918764 160.363845,107.333718 C160.363845,122.092089 172.390904,134.166859 187.090961,134.166859 C201.791019,134.166859 213.818077,122.092089 213.818077,107.333718 C213.818077,104.918764 213.551065,102.50381 212.882671,100.356928 L260.457455,52.7277421 C262.595854,53.3987868 264.867472,53.6668588 267.272884,53.6668588 C281.972941,53.6668588 294,41.5920894 294,26.8337177 C294.001148,12.0747694 281.97409,0 267.274032,0 Z"></path>
            </g>
        </g>
    </g>
</svg>