<?xml version="1.0" encoding="UTF-8"?>
<svg width="138px" height="138px" viewBox="0 0 138 138" version="1.1" xmlns="http://www.w3.org/2000/svg" xmlns:xlink="http://www.w3.org/1999/xlink">
    <!-- Generator: Sketch 48.2 (47327) - http://www.bohemiancoding.com/sketch -->
    <title>check_icon</title>
    <desc>Created with Sketch.</desc>
    <defs></defs>
    <g id="Page-2" stroke="none" stroke-width="1" fill="none" fill-rule="evenodd">
        <g id="check_icon">
            <g transform="translate(3.000000, 17.000000)">
                <path d="M130.6498,39.4475 C130.6498,44.9355 126.2008,49.3845 120.7138,49.3845 C115.2258,49.3845 110.7768,44.9355 110.7768,39.4475 C110.7768,33.9595 115.2258,29.5115 120.7138,29.5115 C126.2008,29.5115 130.6498,33.9595 130.6498,39.4475" id="Fill-107" fill="#01D4BB"></path>
                <path d="M8.931,99.1746 C8.931,101.3946 7.131,103.1956 4.91,103.1956 C2.69,103.1956 0.89,101.3946 0.89,99.1746 C0.89,96.9546 2.69,95.1546 4.91,95.1546 C7.131,95.1546 8.931,96.9546 8.931,99.1746" id="Fill-109" fill="#01D4BB"></path>
                <path d="M132.7905,17.0225 C132.7905,18.5045 131.5895,19.7055 130.1075,19.7055 C128.6265,19.7055 127.4255,18.5045 127.4255,17.0225 C127.4255,15.5415 128.6265,14.3405 130.1075,14.3405 C131.5895,14.3405 132.7905,15.5415 132.7905,17.0225" id="Fill-111" fill="#01D4BB"></path>
                <path d="M101.4281,61.9854 C101.4281,63.4664 100.2271,64.6674 98.7451,64.6674 C97.2641,64.6674 96.0631,63.4664 96.0631,61.9854 C96.0631,60.5034 97.2641,59.3024 98.7451,59.3024 C100.2271,59.3024 101.4281,60.5034 101.4281,61.9854" id="Fill-113" fill="#01D4BB"></path>
                <path d="M41.3054,4.3 C41.3054,6.543 39.4874,8.362 37.2434,8.362 C35.0004,8.362 33.1824,6.543 33.1824,4.3 C33.1824,2.057 35.0004,0.238 37.2434,0.238 C39.4874,0.238 41.3054,2.057 41.3054,4.3" id="Fill-115" fill="#01D4BB"></path>
                <path d="M87.8594,55.5427 C87.8594,77.0137 70.4534,94.4187 48.9834,94.4187 C27.5124,94.4187 10.1064,77.0137 10.1064,55.5427 C10.1064,34.0717 27.5124,16.6667 48.9834,16.6667 C70.4534,16.6667 87.8594,34.0717 87.8594,55.5427" id="Fill-145" fill="#01D4BB"></path>
                <path d="M47.4308,92.2224 C38.4858,92.2214 29.8818,88.5274 23.2038,81.8194 C16.2118,74.7954 12.2238,65.2754 12.2648,55.6984 C12.3518,35.7934 29.1048,18.9754 48.8498,18.9754 L49.2538,18.9774 C69.1608,19.2094 85.4348,35.6264 85.5308,55.5754 C85.5788,65.5494 81.8878,74.7834 75.1358,81.5774 C68.3868,88.3684 59.1748,92.1294 49.1818,92.1754 C48.5958,92.2064 48.0148,92.2224 47.4348,92.2224 L47.4308,92.2224 Z M48.9078,95.1544 C70.1678,95.1544 88.1928,77.4924 88.2668,56.5864 C88.3068,45.7104 84.1978,35.5764 76.6998,28.0504 C69.3838,20.7094 59.6128,16.6664 49.1868,16.6664 C27.3728,16.6664 10.0298,33.8214 9.7028,55.7224 C9.5508,65.8944 13.5668,75.6644 21.0088,83.2324 C28.4438,90.7914 38.5888,95.1364 48.8448,95.1544 L48.9078,95.1544 Z" id="Fill-147" fill="#804090"></path>
                <path d="M49.0176,70.1592 L49.0126,70.1592 C48.5346,70.1572 48.0906,69.9152 47.8296,69.5162 L33.6496,47.7582 C33.2226,47.1022 33.4076,46.2232 34.0636,45.7952 C34.7176,45.3692 35.5976,45.5532 36.0256,46.2092 L49.0266,66.1582 L62.1966,46.2512 C62.6276,45.5982 63.5086,45.4172 64.1626,45.8512 C64.8146,46.2832 64.9936,47.1632 64.5616,47.8162 L50.1996,69.5242 C49.9376,69.9202 49.4926,70.1592 49.0176,70.1592" id="Fill-149" fill="#804090"></path>
            </g>
        </g>
    </g>
</svg>