<?xml version="1.0" encoding="UTF-8"?>
<svg width="138px" height="138px" viewBox="0 0 138 138" version="1.1" xmlns="http://www.w3.org/2000/svg" xmlns:xlink="http://www.w3.org/1999/xlink">
    <!-- Generator: Sketch 48.2 (47327) - http://www.bohemiancoding.com/sketch -->
    <title>checklist_icon</title>
    <desc>Created with Sketch.</desc>
    <defs></defs>
    <g id="Page-2" stroke="none" stroke-width="1" fill="none" fill-rule="evenodd">
        <g id="checklist_icon">
            <g transform="translate(4.000000, 15.000000)">
                <g id="Group-106" fill="#01D4BB">
                    <path d="M19.903,37.1711 C19.903,42.6591 15.454,47.1071 9.967,47.1071 C4.479,47.1071 0.03,42.6591 0.03,37.1711 C0.03,31.6831 4.479,27.2351 9.967,27.2351 C15.454,27.2351 19.903,31.6831 19.903,37.1711" id="Fill-96"></path>
                    <path d="M125.4785,80.2737 C125.4785,82.4937 123.6785,84.2947 121.4585,84.2947 C119.2375,84.2947 117.4375,82.4937 117.4375,80.2737 C117.4375,78.0537 119.2375,76.2537 121.4585,76.2537 C123.6785,76.2537 125.4785,78.0537 125.4785,80.2737" id="Fill-98"></path>
                    <path d="M112.5579,3.1235 C112.5579,4.6905 111.2869,5.9615 109.7199,5.9615 C108.1529,5.9615 106.8819,4.6905 106.8819,3.1235 C106.8819,1.5565 108.1529,0.2855 109.7199,0.2855 C111.2869,0.2855 112.5579,1.5565 112.5579,3.1235" id="Fill-100"></path>
                    <path d="M129.8185,34.7983 C129.8185,35.9923 128.8505,36.9603 127.6565,36.9603 C126.4625,36.9603 125.4945,35.9923 125.4945,34.7983 C125.4945,33.6043 126.4625,32.6363 127.6565,32.6363 C128.8505,32.6363 129.8185,33.6043 129.8185,34.7983" id="Fill-102"></path>
                    <path d="M9.9667,93.3997 C9.9667,94.8807 8.7657,96.0827 7.2837,96.0827 C5.8027,96.0827 4.6017,94.8807 4.6017,93.3997 C4.6017,91.9177 5.8027,90.7167 7.2837,90.7167 C8.7657,90.7167 9.9667,91.9177 9.9667,93.3997" id="Fill-104"></path>
                </g>
                <path d="M88.7979,40.5535 L88.2619,40.5535 C87.4949,40.5535 86.7269,40.5555 85.9599,40.5565 C85.1909,40.5585 84.4219,40.5595 83.6529,40.5595 C82.6199,40.5595 81.5859,40.5575 80.5529,40.5475 C78.0699,40.5255 76.0329,38.6455 75.9159,36.2665 C75.8229,34.3505 75.8429,32.4605 75.8629,30.4605 C75.8719,29.6005 75.8819,28.7265 75.8819,27.8315 L75.8819,25.4565 L91.2479,40.5615 L88.7979,40.5535 Z M93.6159,40.4635 C87.4489,34.1845 81.8339,28.5655 76.4509,23.2865 C75.9079,22.7535 74.9909,22.3275 74.3169,22.2965 C70.2679,22.1095 66.1329,22.0825 62.1349,22.0565 L61.3579,22.0525 C60.5239,22.0525 59.6619,22.0935 58.8289,22.1325 C57.9729,22.1735 57.0879,22.2155 56.2049,22.2155 C54.2639,22.2055 52.4479,22.1695 50.6929,22.1365 C48.6159,22.0955 46.4679,22.0535 44.3599,22.0535 C40.5239,22.0565 38.1879,23.9095 37.3049,27.5615 C37.1189,28.3305 37.0809,29.1665 37.0809,30.1855 C37.0699,51.6145 37.0679,75.0475 37.0759,101.8245 C37.0769,106.0465 39.5179,108.8095 43.2929,108.8635 C47.5709,108.9255 52.1349,108.9525 58.0899,108.9525 C60.5999,108.9525 63.1089,108.9475 65.6189,108.9425 C68.1329,108.9475 70.6429,108.9525 73.1529,108.9525 C79.1079,108.9525 83.6709,108.9255 87.9489,108.8635 C91.7249,108.8095 94.1649,106.0465 94.1669,101.8245 L94.1373133,41.1626344 C93.451615,41.5377638 92.9839,41.7755 92.3639,42.0675 L92.3639,100.6165 C92.3639,101.4785 92.2749,102.3405 92.1019,103.1795 C91.5559,105.8295 90.0509,107.0635 87.3639,107.0645 C81.6559,107.0675 75.9469,107.0675 70.2389,107.0675 L60.6119,107.0675 C55.0339,107.0675 49.4559,107.0675 43.8779,107.0655 C41.1909,107.0635 39.6859,105.8285 39.1399,103.1795 C38.9669,102.3395 38.8789,101.4775 38.8779,100.6155 C38.8669,88.9755 38.8669,77.3335 38.8679,65.6925 L38.8629,30.0045 C38.8629,27.8525 39.3209,26.3945 40.3059,25.4175 C41.2879,24.4425 42.7529,23.9885 44.9149,23.9885 C46.4099,23.9895 47.8849,23.9905 49.3609,23.9905 L73.7439,23.9895 L73.9409,24.7305 C74.0269,25.0105 74.0819,25.1825 74.0829,25.4055 C74.0909,28.6635 74.0959,31.9195 74.0969,35.1775 C74.0989,39.8985 76.4789,42.3185 81.1699,42.3715 C83.5079,42.3975 85.8459,42.3905 88.2519,42.3845 C89.3559,42.3815 90.4739,42.3785 91.6129,42.3785 L92.3659,42.0675 C93.1541526,41.6883557 93.7446237,41.3867339 94.1373133,41.1626344 C94.022134,40.9861625 94.0139,40.8685 93.6159,40.4635 Z" id="Fill-117" fill="#804090"></path>
                <path d="M59.7007,73.3 C59.7177,70.508 57.5117,68.28 54.6787,68.228 C51.9387,68.178 49.5747,70.479 49.5467,73.223 C49.5177,76.058 51.8957,78.457 54.6967,78.419 C57.4727,78.38 59.6837,76.119 59.7007,73.3 M54.6207,80.274 C50.7697,80.264 47.6467,77.206 47.6437,73.369 C47.6397,69.043 51.2507,66.198 54.8497,66.302 C58.5717,66.411 61.6787,69.572 61.6537,73.413 C61.6277,77.196 58.4637,80.283 54.6207,80.274" id="Fill-119" fill="#804090"></path>
                <path d="M54.6478,60.7256 C57.5298,60.7216 59.7168,58.5286 59.7028,55.6566 C59.6898,52.8866 57.4368,50.6126 54.6728,50.5806 C51.9228,50.5486 49.5588,52.8966 49.5468,55.6756 C49.5348,58.3986 51.8718,60.8876 54.6478,60.7256 M54.6708,48.7076 C58.5608,48.7076 61.6568,51.8646 61.6428,55.8166 C61.6298,59.5536 58.4078,62.7106 54.6148,62.7046 C50.7948,62.6976 47.5778,59.4546 47.6348,55.6646 C47.6928,51.7636 50.7828,48.7076 54.6708,48.7076" id="Fill-121" fill="#804090"></path>
                <path d="M74.9818,54.7417 C77.4798,54.7417 79.9778,54.7467 82.4758,54.7387 C83.1318,54.7367 83.7198,54.8187 83.7408,55.6477 C83.7628,56.5087 83.1588,56.6867 82.4708,56.6877 C77.4748,56.6937 72.4788,56.6937 67.4828,56.6877 C66.8098,56.6867 66.1648,56.5587 66.1688,55.6947 C66.1738,54.8277 66.7888,54.7327 67.4878,54.7367 C69.9858,54.7507 72.4838,54.7417 74.9818,54.7417" id="Fill-123" fill="#804090"></path>
                <path d="M74.8939,74.2778 C72.4249,74.2788 69.9569,74.2698 67.4889,74.2848 C66.7749,74.2888 66.1669,74.1238 66.1559,73.3058 C66.1459,72.4668 66.7879,72.3208 67.4809,72.3208 C72.4779,72.3228 77.4749,72.3218 82.4719,72.3228 C83.1679,72.3228 83.7689,72.4778 83.7399,73.3448 C83.7139,74.1508 83.1359,74.2778 82.4799,74.2778 C79.9509,74.2758 77.4229,74.2768 74.8939,74.2778" id="Fill-125" fill="#804090"></path>
                <path d="M74.9706,76.8196 C77.4426,76.8196 79.9156,76.8226 82.3876,76.8176 C83.0556,76.8156 83.7166,76.8406 83.7396,77.7346 C83.7646,78.6976 83.0536,78.7266 82.3606,78.7276 C77.4456,78.7306 72.5316,78.7306 67.6176,78.7316 C67.4966,78.7316 67.3756,78.7336 67.2556,78.7276 C66.6036,78.6986 66.1136,78.4516 66.1626,77.7116 C66.2056,77.0506 66.6416,76.8116 67.2826,76.8146 C69.8456,76.8276 72.4076,76.8196 74.9706,76.8196" id="Fill-127" fill="#804090"></path>
                <path d="M74.8804,52.2007 C72.5024,52.2007 70.1254,52.2007 67.7474,52.2007 C67.5064,52.2007 67.2624,52.2187 67.0264,52.1847 C66.4804,52.1077 66.0544,51.7677 66.1894,51.2347 C66.2834,50.8647 66.6954,50.3887 67.0454,50.3097 C67.7044,50.1597 68.4204,50.2597 69.1124,50.2597 C73.4154,50.2587 77.7194,50.2587 82.0234,50.2587 C82.2344,50.2587 82.4454,50.2527 82.6554,50.2617 C83.2554,50.2877 83.7314,50.4807 83.7444,51.1867 C83.7584,51.9247 83.2964,52.1937 82.6454,52.1967 C80.0574,52.2067 77.4684,52.2007 74.8804,52.2007" id="Fill-129" fill="#804090"></path>
                <path d="M74.9511,69.772 C72.4491,69.773 69.9471,69.767 67.4451,69.778 C66.7841,69.781 66.1941,69.688 66.1611,68.876 C66.1251,67.986 66.7831,67.877 67.4521,67.876 C72.4861,67.873 77.5201,67.878 82.5541,67.883 C83.2301,67.884 83.7711,68.075 83.7431,68.893 C83.7171,69.672 83.1811,69.777 82.5471,69.774 C80.0151,69.765 77.4831,69.771 74.9511,69.772" id="Fill-131" fill="#804090"></path>
                <path d="M59.7007,90.6809 C59.7177,87.8889 57.5117,85.6599 54.6787,85.6089 C51.9387,85.5589 49.5747,87.8599 49.5467,90.6039 C49.5177,93.4389 51.8957,95.8379 54.6967,95.7999 C57.4727,95.7609 59.6837,93.4999 59.7007,90.6809 M54.6207,97.6549 C50.7697,97.6449 47.6467,94.5869 47.6437,90.7499 C47.6397,86.4239 51.2507,83.5789 54.8497,83.6829 C58.5717,83.7919 61.6787,86.9529 61.6537,90.7939 C61.6277,94.5769 58.4637,97.6639 54.6207,97.6549" id="Fill-133" fill="#804090"></path>
                <path d="M74.8939,91.6587 C72.4249,91.6597 69.9569,91.6507 67.4889,91.6657 C66.7749,91.6697 66.1669,91.5047 66.1559,90.6867 C66.1459,89.8477 66.7879,89.7017 67.4809,89.7017 C72.4779,89.7037 77.4749,89.7027 82.4719,89.7037 C83.1679,89.7037 83.7689,89.8587 83.7399,90.7257 C83.7139,91.5317 83.1359,91.6587 82.4799,91.6587 C79.9509,91.6567 77.4229,91.6577 74.8939,91.6587" id="Fill-135" fill="#804090"></path>
                <path d="M74.9706,94.2004 C77.4426,94.2004 79.9156,94.2034 82.3876,94.1984 C83.0556,94.1964 83.7166,94.2214 83.7396,95.1154 C83.7646,96.0784 83.0536,96.1074 82.3606,96.1084 C77.4456,96.1114 72.5316,96.1114 67.6176,96.1124 C67.4966,96.1124 67.3756,96.1144 67.2556,96.1084 C66.6036,96.0794 66.1136,95.8324 66.1626,95.0924 C66.2056,94.4314 66.6416,94.1924 67.2826,94.1954 C69.8456,94.2084 72.4076,94.2004 74.9706,94.2004" id="Fill-137" fill="#804090"></path>
                <path d="M74.9511,87.1528 C72.4491,87.1538 69.9471,87.1478 67.4451,87.1588 C66.7841,87.1618 66.1941,87.0688 66.1611,86.2568 C66.1251,85.3668 66.7831,85.2578 67.4521,85.2568 C72.4861,85.2538 77.5201,85.2588 82.5541,85.2638 C83.2301,85.2648 83.7711,85.4558 83.7431,86.2738 C83.7171,87.0528 83.1811,87.1578 82.5471,87.1548 C80.0151,87.1458 77.4831,87.1518 74.9511,87.1528" id="Fill-139" fill="#804090"></path>
                <path d="M74.9432,61.0774 C72.4112,61.0774 69.8802,61.0674 67.3482,61.0844 C66.6922,61.0884 66.1902,60.9364 66.1622,60.1874 C66.1352,59.4354 66.6232,59.2234 67.2842,59.2234 C72.4072,59.2274 77.5302,59.2274 82.6542,59.2254 C83.3282,59.2254 83.7762,59.4714 83.7432,60.2204 C83.7122,60.9294 83.2522,61.0864 82.6282,61.0834 C80.0662,61.0694 77.5052,61.0774 74.9432,61.0774" id="Fill-141" fill="#804090"></path>
                <path d="M54.6434,55.9617 C55.1164,55.2097 55.5074,54.5747 55.9114,53.9477 C56.2624,53.4027 56.7304,53.1137 57.3414,53.5137 C57.9044,53.8827 57.8774,54.4037 57.5504,54.9307 C56.8834,56.0017 56.2274,57.0797 55.5344,58.1337 C54.9904,58.9607 54.2784,58.9727 53.7494,58.1637 C53.0594,57.1107 52.4084,56.0307 51.7474,54.9597 C51.4014,54.3997 51.3784,53.8617 52.0014,53.4897 C52.5874,53.1387 53.0254,53.4037 53.3564,53.9287 C53.7534,54.5597 54.1534,55.1887 54.6434,55.9617" id="Fill-143" fill="#804090"></path>
            </g>
        </g>
    </g>
</svg>